<svg width="1280" height="720" viewBox="0 0 1280 720" fill="none" xmlns="http://www.w3.org/2000/svg">
  <rect width="1280" height="720" rx="24" fill="#F8FAFC"/>
  <rect x="36" y="36" width="1208" height="648" rx="20" fill="#FFFFFF" stroke="#CBD5E1"/>
  <text x="72" y="100" fill="#0F172A" font-family="Arial, Helvetica, sans-serif" font-size="40" font-weight="700">
    Workflow Map
  </text>
  <text x="72" y="136" fill="#475569" font-family="Arial, Helvetica, sans-serif" font-size="22">
    How tasks route through orchestrators and specialist skills
  </text>

  <rect x="80" y="220" width="210" height="90" rx="18" fill="#E0F2FE" stroke="#0284C7"/>
  <text x="135" y="274" fill="#0C4A6E" font-family="Arial, Helvetica, sans-serif" font-size="28" font-weight="700">
    PM Task
  </text>

  <rect x="380" y="205" width="270" height="120" rx="18" fill="#DBEAFE" stroke="#2563EB"/>
  <text x="432" y="260" fill="#1E3A8A" font-family="Arial, Helvetica, sans-serif" font-size="30" font-weight="700">
    zz-pm-workflow
  </text>
  <text x="445" y="296" fill="#1D4ED8" font-family="Arial, Helvetica, sans-serif" font-size="20">
    Main orchestrator
  </text>

  <path d="M290 265H380" stroke="#64748B" stroke-width="4" stroke-linecap="round"/>

  <rect x="760" y="120" width="200" height="72" rx="16" fill="#F1F5F9" stroke="#94A3B8"/>
  <text x="815" y="164" fill="#334155" font-family="Arial, Helvetica, sans-serif" font-size="24" font-weight="700">
    zz-pm-prd
  </text>

  <rect x="760" y="220" width="200" height="72" rx="16" fill="#F1F5F9" stroke="#94A3B8"/>
  <text x="782" y="264" fill="#334155" font-family="Arial, Helvetica, sans-serif" font-size="24" font-weight="700">
    zz-pm-review
  </text>

  <rect x="760" y="320" width="200" height="72" rx="16" fill="#F1F5F9" stroke="#94A3B8"/>
  <text x="795" y="364" fill="#334155" font-family="Arial, Helvetica, sans-serif" font-size="24" font-weight="700">
    analytics
  </text>

  <rect x="760" y="420" width="200" height="72" rx="16" fill="#F1F5F9" stroke="#94A3B8"/>
  <text x="786" y="464" fill="#334155" font-family="Arial, Helvetica, sans-serif" font-size="24" font-weight="700">
    roadmap
  </text>

  <rect x="760" y="520" width="280" height="92" rx="18" fill="#EDE9FE" stroke="#7C3AED"/>
  <text x="793" y="565" fill="#5B21B6" font-family="Arial, Helvetica, sans-serif" font-size="28" font-weight="700">
    prototype-workflow
  </text>
  <text x="842" y="596" fill="#7C3AED" font-family="Arial, Helvetica, sans-serif" font-size="18">
    image / url / pencil
  </text>

  <path d="M650 245H760" stroke="#64748B" stroke-width="3" stroke-linecap="round"/>
  <path d="M650 265H740C750 265 760 255 760 245V156" stroke="#64748B" stroke-width="3" stroke-linecap="round"/>
  <path d="M650 285H740C750 285 760 295 760 305V356" stroke="#64748B" stroke-width="3" stroke-linecap="round"/>
  <path d="M650 305H740C750 305 760 315 760 325V456" stroke="#64748B" stroke-width="3" stroke-linecap="round"/>
  <path d="M650 325H720C740 325 760 345 760 365V566" stroke="#64748B" stroke-width="3" stroke-linecap="round"/>

  <text x="84" y="646" fill="#64748B" font-family="Arial, Helvetica, sans-serif" font-size="18">
    Public repo preview graphic for GitHub README
  </text>
</svg>
